<svg width="243.067" height="48.17" viewBox="0 0 243.067 48.17" xmlns="http://www.w3.org/2000/svg"><g id="svgGroup" stroke-linecap="round" fill-rule="evenodd" font-size="9pt" stroke="#000" stroke-width="0.25mm" fill="#000" style="stroke:#000;stroke-width:0.25mm;fill:#000"><path d="M 22.266 20.581 L 22.266 33.374 A 11.14 11.14 0 0 1 17.774 36.829 Q 15.064 37.988 11.841 37.988 A 13.115 13.115 0 0 1 8.069 37.473 A 9.973 9.973 0 0 1 3.247 34.326 A 12.582 12.582 0 0 1 0.823 29.797 Q 0.06 27.316 0 24.17 L 0 15.527 A 25.12 25.12 0 0 1 0.29 11.581 Q 0.927 7.583 2.967 5.09 A 9.644 9.644 0 0 1 9.067 1.651 A 14.326 14.326 0 0 1 11.426 1.465 Q 16.333 1.465 19.117 4.175 Q 21.648 6.64 22.16 11.084 A 19 19 0 0 1 22.242 11.987 L 19.458 11.987 A 15.565 15.565 0 0 0 19.063 9.747 Q 18.435 7.324 17.054 5.994 Q 15.311 4.316 12.253 4.126 A 12.942 12.942 0 0 0 11.451 4.102 A 10.327 10.327 0 0 0 8.834 4.413 A 6.874 6.874 0 0 0 4.944 6.995 A 9.478 9.478 0 0 0 3.548 9.783 Q 2.784 12.154 2.784 15.479 L 2.784 23.682 Q 2.784 29.248 5.164 32.324 A 7.73 7.73 0 0 0 10.797 35.352 A 11.067 11.067 0 0 0 11.841 35.4 A 12.009 12.009 0 0 0 15.441 34.884 A 9.698 9.698 0 0 0 19.458 32.446 L 19.458 23.193 L 11.67 23.193 L 11.67 20.581 L 22.266 20.581 Z M 125.635 1.953 L 125.635 37.5 L 122.828 37.5 L 122.828 20.483 L 106.128 20.483 L 106.128 37.5 L 103.345 37.5 L 103.345 1.953 L 106.128 1.953 L 106.128 17.896 L 122.828 17.896 L 122.828 1.953 L 125.635 1.953 Z M 157.129 11.084 L 163.697 33.032 L 169.996 11.084 L 172.901 11.084 L 163.599 41.724 L 163.086 43.188 A 11.915 11.915 0 0 1 162.058 45.309 Q 160.266 48.169 157.325 48.169 A 5.667 5.667 0 0 1 156.127 48.035 A 7.194 7.194 0 0 1 155.371 47.827 L 155.347 45.337 A 3.91 3.91 0 0 0 156.092 45.483 A 4.952 4.952 0 0 0 156.592 45.508 A 4.824 4.824 0 0 0 157.916 45.335 A 3.748 3.748 0 0 0 159.473 44.458 A 4.952 4.952 0 0 0 160.253 43.501 Q 160.863 42.546 161.321 41.087 A 15.71 15.71 0 0 0 161.329 41.064 L 162.452 37.329 L 154.151 11.084 L 157.129 11.084 Z M 66.26 25.928 L 66.26 23.071 Q 66.26 17.139 68.195 14.033 A 8.29 8.29 0 0 1 68.409 13.708 A 6.992 6.992 0 0 1 73.533 10.676 A 10.558 10.558 0 0 1 74.854 10.596 Q 78.851 10.596 81.051 13.795 A 10.054 10.054 0 0 1 81.641 14.771 L 81.787 11.084 L 84.302 11.084 L 84.302 38.257 Q 84.278 43.042 82.019 45.532 A 7.251 7.251 0 0 1 78.446 47.658 Q 77.263 47.977 75.849 48.017 A 14.494 14.494 0 0 1 75.44 48.022 A 9.56 9.56 0 0 1 72.229 47.45 A 11.828 11.828 0 0 1 71.058 46.96 Q 68.848 45.898 67.701 44.36 L 68.97 42.407 A 10.16 10.16 0 0 0 71.075 44.266 A 7.509 7.509 0 0 0 75.245 45.508 A 9.772 9.772 0 0 0 77 45.361 Q 77.956 45.186 78.7 44.803 A 4.387 4.387 0 0 0 80.042 43.75 A 5.532 5.532 0 0 0 81.032 41.98 Q 81.553 40.506 81.568 38.403 L 81.568 34.204 A 7.793 7.793 0 0 1 79.384 36.654 Q 77.835 37.758 75.732 37.948 A 9.993 9.993 0 0 1 74.829 37.988 Q 70.704 37.988 68.518 34.888 A 10.644 10.644 0 0 1 67.112 31.979 Q 66.67 30.597 66.457 28.917 A 26.384 26.384 0 0 1 66.26 25.928 Z M 226.197 11.084 L 228.785 11.084 L 228.858 15.283 A 10.478 10.478 0 0 1 230.477 13.042 A 9.109 9.109 0 0 1 231.849 11.865 A 7.055 7.055 0 0 1 235.987 10.596 A 7.282 7.282 0 0 1 239.261 11.284 Q 242.285 12.786 242.909 17.565 A 20.194 20.194 0 0 1 243.067 19.8 L 243.067 37.5 L 240.381 37.5 L 240.381 20.093 A 16.55 16.55 0 0 0 240.273 18.248 Q 240.045 16.341 239.339 15.174 A 4.434 4.434 0 0 0 239.136 14.868 A 3.91 3.91 0 0 0 236.808 13.35 Q 236.135 13.186 235.329 13.184 A 8.044 8.044 0 0 0 235.303 13.184 A 5.301 5.301 0 0 0 231.913 14.408 A 7.02 7.02 0 0 0 231.482 14.783 Q 229.837 16.334 228.96 18.999 A 14.791 14.791 0 0 0 228.907 19.165 L 228.907 37.5 L 226.197 37.5 L 226.197 11.084 Z M 150.342 37.5 L 147.461 37.5 A 8.928 8.928 0 0 1 147.261 36.622 Q 147.058 35.501 146.973 33.838 A 8.814 8.814 0 0 1 144.53 36.463 A 8.531 8.531 0 0 1 143.836 36.902 A 8.299 8.299 0 0 1 139.673 37.988 A 9.73 9.73 0 0 1 137.502 37.76 Q 135.601 37.325 134.351 36.06 Q 132.606 34.293 132.46 31.153 A 12.598 12.598 0 0 1 132.447 30.566 A 9.157 9.157 0 0 1 132.849 27.786 A 7.257 7.257 0 0 1 135.096 24.414 Q 137.745 22.144 142.408 22.119 L 146.949 22.119 L 146.949 18.433 A 8.993 8.993 0 0 0 146.838 16.966 Q 146.711 16.204 146.441 15.605 A 3.578 3.578 0 0 0 145.545 14.368 Q 144.141 13.135 141.431 13.135 A 7.073 7.073 0 0 0 139.537 13.377 A 5.421 5.421 0 0 0 137.305 14.6 A 4.832 4.832 0 0 0 135.699 18.133 A 6.481 6.481 0 0 0 135.694 18.384 L 132.984 18.359 A 7.178 7.178 0 0 1 135.202 13.068 A 9.067 9.067 0 0 1 135.425 12.854 A 8.424 8.424 0 0 1 140.513 10.643 A 11.215 11.215 0 0 1 141.553 10.596 Q 144.314 10.596 146.147 11.559 A 6.12 6.12 0 0 1 147.583 12.598 A 6.408 6.408 0 0 1 149.235 15.406 Q 149.534 16.407 149.609 17.609 A 13.244 13.244 0 0 1 149.634 18.433 L 149.634 31.396 A 34.153 34.153 0 0 0 149.69 33.426 Q 149.833 35.821 150.342 37.207 L 150.342 37.5 Z M 176.294 25.806 L 176.294 23.071 Q 176.294 17.028 178.358 13.895 A 8.358 8.358 0 0 1 178.467 13.733 Q 180.64 10.596 184.912 10.596 A 7.844 7.844 0 0 1 188.047 11.198 Q 190.264 12.154 191.626 14.624 L 191.626 0 L 194.336 0 L 194.336 37.5 L 191.797 37.5 L 191.675 34.106 A 7.939 7.939 0 0 1 189.582 36.547 Q 187.67 37.988 184.888 37.988 A 8.724 8.724 0 0 1 182.144 37.578 A 6.956 6.956 0 0 1 178.528 34.814 Q 176.911 32.465 176.464 28.658 A 26.401 26.401 0 0 1 176.294 25.806 Z M 43.067 26.245 L 43.067 23.022 A 21.548 21.548 0 0 1 43.34 19.479 Q 43.664 17.541 44.37 15.98 A 10.528 10.528 0 0 1 45.606 13.904 A 8.139 8.139 0 0 1 51.507 10.647 A 11.045 11.045 0 0 1 52.588 10.596 A 10.463 10.463 0 0 1 55.287 10.924 A 7.189 7.189 0 0 1 59.143 13.403 A 8.879 8.879 0 0 1 60.571 16.051 Q 61.421 18.471 61.451 21.997 L 61.451 24.536 L 45.752 24.536 L 45.752 26.025 A 17.15 17.15 0 0 0 45.942 28.661 Q 46.359 31.337 47.693 33.032 A 6.315 6.315 0 0 0 52.107 35.438 A 9.175 9.175 0 0 0 53.174 35.498 A 8.672 8.672 0 0 0 56.307 34.951 A 7.815 7.815 0 0 0 59.497 32.642 L 60.913 34.448 A 8.363 8.363 0 0 1 55.539 37.764 A 13.054 13.054 0 0 1 53.052 37.988 A 11.432 11.432 0 0 1 49.901 37.577 A 8.427 8.427 0 0 1 45.752 34.937 Q 43.116 31.885 43.067 26.245 Z M 40.088 10.913 L 40.039 13.623 A 13.133 13.133 0 0 0 39.286 13.512 Q 38.928 13.471 38.611 13.458 A 6.882 6.882 0 0 0 38.33 13.452 A 5.399 5.399 0 0 0 36.206 13.861 A 5.119 5.119 0 0 0 34.558 14.99 Q 33.169 16.391 32.518 18.784 A 13.222 13.222 0 0 0 32.398 19.263 L 32.398 37.5 L 29.688 37.5 L 29.688 11.084 L 32.349 11.084 L 32.398 15.039 A 9.498 9.498 0 0 1 33.647 12.904 A 5.842 5.842 0 0 1 38.453 10.596 A 5.848 5.848 0 0 1 39.045 10.624 Q 39.648 10.685 40.032 10.882 A 1.629 1.629 0 0 1 40.088 10.913 Z M 200.635 26.074 L 200.635 22.949 A 20.4 20.4 0 0 1 200.939 19.314 Q 201.522 16.098 203.223 13.916 A 8.303 8.303 0 0 1 209.291 10.638 A 11.219 11.219 0 0 1 210.279 10.596 Q 214.771 10.596 217.347 13.867 Q 219.507 16.612 219.873 21.091 A 23.182 23.182 0 0 1 219.947 22.876 L 219.947 25.684 A 20.935 20.935 0 0 1 219.667 29.221 Q 219.335 31.151 218.612 32.695 A 10.156 10.156 0 0 1 217.347 34.741 A 8.363 8.363 0 0 1 211.272 37.949 A 11.266 11.266 0 0 1 210.328 37.988 A 9.909 9.909 0 0 1 207.097 37.484 A 8.263 8.263 0 0 1 203.321 34.814 Q 200.733 31.641 200.635 26.074 Z M 203.37 22.754 L 203.37 25.684 A 18.323 18.323 0 0 0 203.568 28.469 Q 203.796 29.95 204.287 31.153 A 8.554 8.554 0 0 0 205.213 32.861 A 6.126 6.126 0 0 0 207.255 34.736 Q 208.59 35.474 210.328 35.474 A 7.085 7.085 0 0 0 212.528 35.149 A 5.627 5.627 0 0 0 215.442 32.959 Q 216.753 31.098 217.106 28.046 A 20.859 20.859 0 0 0 217.237 25.757 L 217.237 22.949 A 18.23 18.23 0 0 0 217.037 20.162 Q 216.628 17.523 215.381 15.759 A 6.229 6.229 0 0 0 213.414 13.92 Q 212.182 13.208 210.608 13.142 A 7.778 7.778 0 0 0 210.279 13.135 A 6.2 6.2 0 0 0 207.69 13.661 Q 206.289 14.296 205.274 15.698 Q 203.799 17.736 203.466 20.993 A 19.38 19.38 0 0 0 203.37 22.754 Z M 179.053 22.9 L 179.053 25.537 A 26.887 26.887 0 0 0 179.173 28.173 Q 179.481 31.286 180.579 33.008 A 5.001 5.001 0 0 0 184.197 35.309 A 7.904 7.904 0 0 0 185.425 35.4 A 6.928 6.928 0 0 0 188.293 34.83 Q 189.904 34.107 190.988 32.466 A 9.244 9.244 0 0 0 191.626 31.323 L 191.626 17.627 A 8.728 8.728 0 0 0 190.358 15.441 Q 188.568 13.243 185.546 13.209 A 8.467 8.467 0 0 0 185.45 13.208 A 7.326 7.326 0 0 0 183.55 13.439 A 4.893 4.893 0 0 0 180.603 15.576 A 7.82 7.82 0 0 0 179.74 17.485 Q 179.161 19.336 179.07 22.027 A 30.216 30.216 0 0 0 179.053 22.9 Z M 68.995 22.9 L 68.995 25.537 A 26.664 26.664 0 0 0 69.116 28.177 Q 69.38 30.825 70.222 32.466 A 6.405 6.405 0 0 0 70.533 33.008 A 5.032 5.032 0 0 0 74.192 35.316 A 7.852 7.852 0 0 0 75.367 35.4 A 7.11 7.11 0 0 0 78.082 34.907 Q 79.87 34.175 80.985 32.356 A 9.006 9.006 0 0 0 81.568 31.226 L 81.568 17.725 A 9.071 9.071 0 0 0 80.341 15.541 A 5.916 5.916 0 0 0 75.415 13.208 A 7.339 7.339 0 0 0 73.514 13.439 A 4.927 4.927 0 0 0 70.557 15.576 A 7.803 7.803 0 0 0 69.682 17.497 Q 69.011 19.638 68.995 22.9 Z M 146.949 30.811 L 146.949 24.39 L 142.652 24.39 Q 140.251 24.421 138.617 25.102 A 5.85 5.85 0 0 0 137.061 26.038 A 5.239 5.239 0 0 0 135.204 29.767 A 7.318 7.318 0 0 0 135.181 30.347 A 7.559 7.559 0 0 0 135.412 32.306 Q 136.092 34.833 138.771 35.28 A 7.568 7.568 0 0 0 140.015 35.376 A 7.803 7.803 0 0 0 142.663 34.937 A 7.101 7.101 0 0 0 144.251 34.131 Q 146.094 32.886 146.949 30.811 Z M 45.777 21.997 L 58.741 21.997 L 58.741 21.289 Q 58.55 13.315 52.849 13.139 A 8.43 8.43 0 0 0 52.588 13.135 A 7.218 7.218 0 0 0 50.48 13.426 A 5.456 5.456 0 0 0 47.669 15.393 A 7.867 7.867 0 0 0 46.527 17.569 Q 46.162 18.607 45.971 19.877 A 19.303 19.303 0 0 0 45.777 21.997 Z" vector-effect="non-scaling-stroke"/></g></svg>